<?xml version="1.0" encoding="UTF-8"?>
<svg width="24px" height="24px" viewBox="0 0 24 24" version="1.1" xmlns="http://www.w3.org/2000/svg" xmlns:xlink="http://www.w3.org/1999/xlink">
    <title>Discord</title>
    <g id="Discord" stroke="none" stroke-width="1" fill="none" fill-rule="evenodd">
        <path d="M19.9375,4.53125 C18.4688,3.84375 16.8906,3.35156 15.25,3.07031 C15.2267,3.06647 15.2031,3.07233 15.1849,3.08665 C14.9927,3.43787 14.7796,3.89849 14.6297,4.26562 C12.8687,4.00391 11.1173,4.00391 9.37891,4.26562 C9.22903,3.89453 9.00903,3.43787 8.81598,3.08665 C8.79774,3.07262 8.77414,3.06676 8.75086,3.07031 C7.11139,3.35156 5.5332,3.84375 4.0625,4.53125 C4.04601,4.53828 4.03215,4.55081 4.02344,4.56641 C1.19336,8.95703 0.376953,13.2266 0.78125,17.4375 C0.782813,17.4609 0.794922,17.4824 0.810547,17.4961 C2.75781,18.9492 4.63477,19.8047 6.47656,20.3711 C6.49992,20.3789 6.52539,20.3711 6.54101,20.3516 C6.97265,19.7617 7.3584,19.1406 7.69141,18.4883 C7.71098,18.4492 7.69232,18.4023 7.65039,18.3867 C7.04688,18.1641 6.47266,17.8886 5.91992,17.5703 C5.87422,17.543 5.87051,17.4766 5.9125,17.4434 C6.02539,17.3555 6.13867,17.2637 6.24805,17.1699 C6.26672,17.1543 6.29214,17.1523 6.31348,17.1621 C10.0664,18.9102 14.1289,18.9102 17.832,17.1621 C17.8535,17.1504 17.879,17.1523 17.8996,17.168 C18.0088,17.2617 18.1222,17.3555 18.2371,17.4434 C18.2793,17.4766 18.2773,17.543 18.2315,17.5703 C17.6787,17.8945 17.1046,18.1641 16.5,18.3848 C16.4582,18.4004 16.4414,18.4492 16.461,18.4883 C16.8,19.1387 17.1857,19.7598 17.6094,20.3496 C17.625,20.3711 17.6523,20.3789 17.6758,20.3711 C19.5273,19.8047 21.4043,18.9492 23.3516,17.4961 C23.3691,17.4824 23.3794,17.4629 23.3809,17.4394 C23.8614,12.5527 22.5938,8.3203 19.9766,4.56836 C19.9679,4.55081 19.9539,4.53828 19.9375,4.53125 Z M8.28125,14.9414 C7.11719,14.9414 6.16016,13.8828 6.16016,12.5937 C6.16016,11.3047 7.09766,10.2461 8.28125,10.2461 C9.47461,10.2461 10.4238,11.3164 10.4043,12.5937 C10.4043,13.8828 9.46484,14.9414 8.28125,14.9414 L8.28125,14.9414 Z M15.7383,14.9414 C14.5742,14.9414 13.6172,13.8828 13.6172,12.5937 C13.6172,11.3047 14.5547,10.2461 15.7383,10.2461 C16.9317,10.2461 17.8809,11.3164 17.8613,12.5937 C17.8613,13.8828 16.9316,14.9414 15.7383,14.9414 L15.7383,14.9414 Z" id="Shape" fill="#FFFFFF" fill-rule="nonzero"></path>
    </g>
</svg>